<svg xmlns="http://www.w3.org/2000/svg" viewBox="0 0 64 64">
  <circle cx="32" cy="32" r="32" fill="#FBF7F4"/>
  <path d="M 32.00 32.00 L 32.01 31.88 L 32.04 31.76 L 32.09 31.65 L 32.15 31.55 L 32.24 31.45 L 32.34 31.36 L 32.45 31.29 L 32.58 31.24 L 32.72 31.20 L 32.87 31.18 L 33.03 31.18 L 33.20 31.20 L 33.36 31.24 L 33.53 31.30 L 33.69 31.39 L 33.85 31.50 L 34.01 31.63 L 34.15 31.78 L 34.28 31.96 L 34.40 32.15 L 34.49 32.36 L 34.57 32.59 L 34.63 32.84 L 34.66 33.09 L 34.67 33.36 L 34.66 33.64 L 34.61 33.92 L 34.53 34.21 L 34.43 34.49 L 34.29 34.77 L 34.13 35.05 L 33.93 35.32 L 33.71 35.57 L 33.45 35.81 L 33.17 36.03 L 32.86 36.23 L 32.53 36.41 L 32.17 36.56 L 31.79 36.68 L 31.40 36.76 L 30.99 36.81 L 30.56 36.83 L 30.13 36.81 L 29.69 36.75 L 29.25 36.65 L 28.81 36.51 L 28.38 36.32 L 27.95 36.10 L 27.54 35.83 L 27.15 35.53 L 26.77 35.18 L 26.42 34.80 L 26.10 34.38 L 25.81 33.92 L 25.56 33.44 L 25.34 32.93 L 25.17 32.39 L 25.04 31.83 L 24.96 31.25 L 24.93 30.65 L 24.95 30.05 L 25.02 29.44 L 25.14 28.82 L 25.32 28.22 L 25.55 27.62 L 25.83 27.03 L 26.17 26.46 L 26.57 25.91 L 27.01 25.39 L 27.50 24.91 L 28.04 24.46 L 28.62 24.05 L 29.24 23.69 L 29.90 23.37 L 30.59 23.11 L 31.31 22.91 L 32.06 22.76 L 32.82 22.68 L 33.60 22.66 L 34.39 22.70 L 35.18 22.81 L 35.96 22.99 L 36.74 23.24 L 37.51 23.56 L 38.25 23.94 L 38.97 24.39 L 39.66 24.90 L 40.30 25.48 L 40.91 26.11 L 41.46 26.80 L 41.97 27.54 L 42.41 28.33 L 42.79 29.16 L 43.11 30.03 L 43.35 30.93 L 43.52 31.86 L 43.61 32.80 L 43.63 33.77 L 43.56 34.74 L 43.41 35.71 L 43.18 36.67 L 42.87 37.63 L 42.48 38.56 L 42.00 39.46 L 41.45 40.33 L 40.82 41.16 L 40.12 41.94 L 39.35 42.67 L 38.52 43.34 L 37.62 43.94 L 36.67 44.47 L 35.67 44.93 L 34.62 45.30 L 33.54 45.59 L 32.43 45.79 L 31.30 45.90 L 30.15 45.92 L 29.00 45.84 L 27.84 45.66 L 26.70 45.39 L 25.57 45.02 L 24.47 44.55 L 23.40 44.00 L 22.37 43.35 L 21.39 42.61 L 20.47 41.78 L 19.61 40.88 L 18.83 39.90 L 18.12 38.85 L 17.50 37.74 L 16.96 36.58 L 16.52 35.36 L 16.18 34.10 L 15.94 32.81 L 15.81 31.49 L 15.78 30.16 L 15.87 28.82 L 16.07 27.48 L 16.38 26.15 L 16.80 24.85 L 17.33 23.57 L 17.97 22.33 L 18.71 21.15 L 19.55 20.01 L 20.49 18.95 L 21.52 17.96 L 22.64 17.05 L 23.84 16.23 L 25.11 15.50 L 26.44 14.88 L 27.83 14.37 L 29.26 13.97 L 30.73 13.68 L 32.23 13.52 L 33.75 13.48 L 35.28 13.57 L 36.80 13.78 L 38.31 14.12 L 39.80 14.59 L 41.25 15.17 L 42.66 15.89 L 44.01 16.71 L 45.30 17.66 L 46.51 18.71 L 47.65 19.86 L 48.68 21.12 L 49.62 22.46 L 50.45 23.88 L 51.17 25.37 L 51.76 26.93 L 52.23 28.54 L 52.56 30.19 L 52.76 31.87 L 52.82 33.57 L 52.74 35.29 L 52.52 36.99 L 52.16 38.69 L 51.66 40.36 L 51.01 41.99 L 50.24 43.57 L 49.33 45.10 L 48.29 46.55 L 47.13 47.91 L 45.86 49.19 L 44.48 50.36 L 43.00 51.42 L 41.43 52.36 L 39.78 53.18 L 38.05 53.86 L 36.27 54.40 L 34.44 54.79 L 32.58 55.03 L 30.69 55.12 L 28.79 55.06 L 26.90 54.84 L 25.01 54.46 L 23.16 53.92 L 21.35 53.24 L 19.59 52.40 L 17.89 51.42" fill="none" stroke="#D6B68A" stroke-width="3" stroke-linecap="round" stroke-linejoin="round"/>
</svg>